<?xml version="1.0" standalone="no"?>
<!DOCTYPE svg PUBLIC "-//W3C//DTD SVG 20010904//EN"
 "http://www.w3.org/TR/2001/REC-SVG-20010904/DTD/svg10.dtd">
<svg version="1.0" xmlns="http://www.w3.org/2000/svg"
 width="1024.000000pt" height="1024.000000pt" viewBox="0 0 1024.000000 1024.000000"
 preserveAspectRatio="xMidYMid meet">
<metadata>
Created by potrace 1.14, written by Peter Selinger 2001-2017
</metadata>
<g transform="translate(0.000000,1024.000000) scale(0.100000,-0.100000)"
fill="#000000" stroke="none">
<path d="M0 5120 l0 -5120 5120 0 5120 0 0 5120 0 5120 -5120 0 -5120 0 0
-5120z m1139 4610 c29 -7 45 -19 55 -39 20 -38 41 -41 275 -41 220 0 266 8
275 45 4 14 13 25 21 25 8 0 15 4 15 9 0 5 342 8 809 7 780 -1 810 -2 830 -20
12 -11 21 -25 21 -32 0 -7 17 -18 38 -23 48 -14 426 -14 475 0 33 9 39 16 37
47 -2 20 103 26 540 28 536 4 562 2 581 -51 l12 -33 255 0 255 -1 1 -240 c1
-174 4 -243 13 -252 26 -26 34 41 32 270 l-2 224 225 -2 c258 -3 303 4 313 47
3 15 13 29 23 31 9 1 238 4 507 7 535 4 591 0 601 -42 10 -38 60 -45 302 -44
119 1 222 1 227 1 6 -1 10 -95 10 -261 l0 -260 -255 0 c-140 0 -261 -4 -268
-8 -7 -5 -10 -19 -8 -33 3 -13 5 -133 5 -266 l1 -243 275 0 275 0 2 266 3 265
266 2 c247 2 267 3 285 21 18 18 19 37 20 269 l2 250 231 -2 c251 -2 295 4
305 43 10 39 65 48 295 45 195 -2 240 -8 266 -34 21 -21 54 -72 49 -77 -6 -7
-7 -4906 0 -4916 3 -4 1 -14 -4 -22 -5 -8 -5 -22 1 -32 5 -10 6 -18 1 -18 -5
0 -8 -12 -6 -27 2 -23 7 -505 4 -523 0 -5 0 -1765 0 -2783 0 -485 -2 -557 -20
-557 -4 0 -10 -9 -13 -19 -11 -43 -66 -52 -302 -51 -121 1 -1622 1 -3335 1
-2808 0 -3562 0 -3655 2 -16 0 -142 -1 -280 -1 -421 -3 -1349 4 -1367 9 -21 6
-69 60 -62 70 2 4 0 11 -6 14 -7 4 -10 97 -10 268 0 144 0 372 0 507 0 135 0
250 1 255 1 6 1 14 0 18 -4 20 -1 540 2 544 2 2 1 21 -3 43 -4 22 -5 40 -1 40
3 0 5 116 4 258 -3 257 -3 1285 -1 1374 1 27 -1 50 -3 52 -2 2 -2 129 1 281 3
152 3 279 0 283 -4 5 4 437 9 517 1 6 -1 42 -4 80 -3 39 -5 527 -4 1085 0 558
0 1022 0 1030 -1 1754 0 2189 3 2207 8 38 37 92 49 90 7 -1 11 4 9 11 -1 8 1
11 6 8 4 -2 14 -1 21 3 20 13 424 14 470 1z m7306 -330 l0 -251 -260 -2 -260
-2 2 250 c1 138 2 252 2 255 1 3 117 4 258 3 l258 -2 0 -251z"/>
<path d="M662 9655 c-4 -5 -6 -124 -4 -262 l3 -253 265 0 264 0 -2 261 -3 261
-258 1 c-163 1 -261 -2 -265 -8z"/>
<path d="M1755 9659 c-3 -8 -6 -126 -7 -262 l-3 -249 -262 -1 c-144 -1 -265
-5 -269 -9 -19 -19 24 -23 263 -25 l255 -1 0 -262 -1 -262 -255 -1 c-140 -1
-258 -5 -262 -9 -19 -19 24 -23 261 -23 231 0 256 2 272 18 16 16 18 43 19
285 l1 267 264 5 264 5 3 263 2 262 -247 0 c-137 0 -258 3 -270 6 -15 4 -25 1
-28 -7z m5 -529 c0 -5 -4 -10 -10 -10 -5 0 -10 5 -10 10 0 6 5 10 10 10 6 0
10 -4 10 -10z"/>
<path d="M3143 9662 l-263 -2 0 -260 c0 -143 1 -261 3 -262 1 -1 121 -5 267
-8 l265 -5 -3 -211 c-4 -212 4 -348 18 -339 5 3 10 -1 12 -7 4 -10 64 -13 260
-13 141 0 260 3 264 8 19 18 -24 22 -262 22 l-254 0 2 264 3 263 252 2 c138 0
255 4 259 9 19 18 -24 22 -262 22 -213 0 -256 -2 -264 -15 -5 -8 -12 -11 -17
-7 -4 5 -3 11 2 15 14 10 4 525 -10 526 -5 1 -128 0 -272 -2z"/>
<path d="M3999 9659 c-5 -3 -8 -113 -7 -260 l3 -254 273 0 272 0 1 255 1 255
-68 2 c-170 6 -467 7 -475 2z"/>
<path d="M4817 9660 l-248 -5 -2 -258 c-2 -250 -1 -258 18 -263 11 -2 128 -3
260 -2 l240 3 0 264 c0 169 -4 265 -10 265 -5 1 -122 -1 -258 -4z"/>
<path d="M6230 9658 c-13 -11 -14 -52 -10 -268 l5 -255 269 0 269 0 1 263 1
262 -247 0 c-135 0 -252 2 -260 5 -7 3 -20 0 -28 -7z"/>
<path d="M7050 9663 l-255 -3 0 -260 0 -260 270 2 270 3 5 253 c5 231 3 255
-12 263 -9 5 -18 8 -20 7 -2 -2 -118 -4 -258 -5z"/>
<path d="M9035 9658 c-3 -7 -4 -126 -3 -263 l3 -250 263 -3 262 -2 0 260 0
260 -244 0 c-134 0 -251 3 -260 6 -9 3 -18 0 -21 -8z"/>
<path d="M2320 9400 l0 -260 270 0 270 0 0 260 0 260 -270 0 -270 0 0 -260z"/>
<path d="M5120 9427 c0 -92 3 -167 8 -167 8 0 6 320 -3 328 -3 3 -5 -70 -5
-161z"/>
<path d="M5125 9117 c-3 -7 -4 -129 -3 -272 l3 -260 257 -3 257 -2 3 267 c2
148 2 271 0 276 -2 4 -118 7 -258 7 -196 0 -256 -3 -259 -13z"/>
<path d="M5675 9124 c-9 -3 -10 -532 -2 -541 5 -5 529 -4 534 1 8 7 6 522 -1
535 -5 8 -84 11 -264 10 -141 0 -261 -2 -267 -5z"/>
<path d="M8475 9124 c-12 -5 -8 -536 4 -544 5 -3 128 -3 273 0 l263 5 3 264
c2 205 -1 266 -10 273 -13 8 -514 10 -533 2z"/>
<path d="M660 8850 l0 -269 256 -3 c141 -2 260 0 265 3 5 3 8 117 7 270 l-3
264 -262 3 -263 2 0 -270z"/>
<path d="M2315 9098 c-3 -13 -4 -135 -3 -273 l3 -250 275 0 275 0 0 270 0 270
-272 3 -273 2 -5 -22z"/>
<path d="M3996 9112 c-3 -5 -4 -125 -3 -268 l2 -259 268 -5 c148 -3 274 -2
280 2 11 6 11 513 1 530 -7 11 -541 10 -548 0z"/>
<path d="M6786 9104 c-3 -9 -6 -130 -6 -269 0 -228 2 -254 17 -257 9 -2 131
-1 272 2 l256 5 3 268 2 267 -269 0 c-236 0 -270 -2 -275 -16z"/>
<path d="M9040 8850 l0 -270 260 0 260 0 0 270 0 270 -260 0 -260 0 0 -270z"/>
<path d="M5080 8842 c0 -127 3 -233 8 -235 8 -6 6 452 -2 461 -3 3 -6 -99 -6
-226z"/>
<path d="M4608 8583 c-16 -2 -28 -8 -28 -13 0 -17 62 -21 280 -19 167 2 225
-1 224 -9 -1 -7 -2 -126 -2 -264 l-2 -253 -244 0 c-134 0 -248 -4 -252 -8 -21
-21 38 -27 259 -27 l237 0 0 -262 0 -263 -244 0 c-134 0 -248 -3 -252 -8 -4
-4 -2 -13 5 -20 9 -9 75 -12 252 -12 l239 0 0 -247 c0 -136 3 -249 8 -252 4
-2 6 87 6 197 -2 220 5 334 21 329 19 -6 23 43 24 276 1 222 -5 282 -29 267
-12 -8 -18 111 -15 344 1 113 0 214 -3 226 -4 21 -6 22 -230 22 -125 0 -239
-1 -254 -4z"/>
<path d="M6268 8583 c-38 -6 -35 -21 5 -28 45 -9 474 -2 483 8 4 4 4 10 0 15
-8 8 -443 13 -488 5z"/>
<path d="M7953 8583 c-13 -2 -23 -8 -23 -13 0 -16 50 -20 265 -19 219 0 274 6
244 25 -14 9 -445 16 -486 7z"/>
<path d="M1754 8566 c-5 -5 -7 -125 -4 -278 l5 -270 270 2 c148 0 273 4 278 9
4 4 6 126 5 272 l-3 264 -271 5 c-154 3 -275 1 -280 -4z"/>
<path d="M2877 8563 c-10 -9 -8 -531 1 -537 5 -3 130 -6 278 -7 l269 -1 5 269
c3 173 1 271 -5 275 -12 10 -539 10 -548 1z"/>
<path d="M662 8290 l3 -271 253 0 c138 1 257 1 262 1 7 0 9 91 8 268 l-3 267
-263 3 -262 2 2 -270z"/>
<path d="M3995 8547 c-3 -7 -4 -127 -3 -267 l3 -255 273 -5 c156 -3 276 -1
279 4 4 6 7 444 3 529 0 4 -124 7 -275 7 -213 0 -277 -3 -280 -13z"/>
<path d="M5127 8553 c-4 -3 -7 -127 -7 -275 l0 -268 259 0 c143 0 261 3 263 8
2 4 2 127 0 275 l-3 267 -253 0 c-139 0 -256 -3 -259 -7z"/>
<path d="M5677 8552 c-3 -4 -7 -127 -8 -272 l-3 -265 268 -5 c162 -3 271 -1
277 5 6 5 9 5 9 -3 0 -7 -4 -12 -10 -12 -14 0 -14 -547 0 -552 6 -1 -106 -2
-247 0 -142 2 -267 1 -278 -2 -20 -5 -20 -12 -18 -272 2 -147 4 -268 6 -270 6
-6 528 -6 534 0 4 4 6 94 4 200 -1 106 0 222 4 257 l7 64 239 -4 c174 -2 248
0 269 9 17 7 30 16 30 20 0 15 -116 22 -317 19 -111 -2 -203 0 -203 4 0 4 0
122 0 262 l0 255 248 0 c229 0 289 6 268 27 -4 4 -125 9 -269 9 l-262 1 -7 34
c-5 19 -7 138 -6 264 l1 230 -266 3 c-146 1 -268 -1 -270 -6z"/>
<path d="M6780 8291 c0 -206 3 -270 13 -272 6 -2 130 -3 275 -1 l262 3 -2 267
-3 267 -272 3 -273 2 0 -269z"/>
<path d="M7358 8299 c-2 -143 -1 -265 2 -270 8 -11 530 -13 542 -1 4 4 7 125
6 268 l-3 259 -272 3 -272 2 -3 -261z"/>
<path d="M8477 8553 c-11 -11 -8 -531 3 -535 5 -1 128 -1 272 2 l263 5 0 265
0 265 -266 3 c-146 1 -268 -1 -272 -5z"/>
<path d="M9040 8290 l0 -270 260 0 260 0 0 270 0 270 -260 0 -260 0 0 -270z"/>
<path d="M1238 8023 c-31 -5 -37 -18 -12 -27 24 -9 477 -7 493 3 11 7 11 10 0
17 -14 9 -432 15 -481 7z"/>
<path d="M3495 8024 c-95 -24 -34 -33 220 -33 228 0 284 6 254 25 -14 9 -439
16 -474 8z"/>
<path d="M7958 8023 c-31 -5 -36 -18 -12 -27 23 -9 465 -6 488 3 47 18 -20 26
-229 27 -121 1 -232 0 -247 -3z"/>
<path d="M2338 8003 c-17 -4 -18 -26 -18 -274 l0 -269 270 0 270 0 0 269 c0
236 -2 270 -16 275 -18 7 -480 6 -506 -1z"/>
<path d="M662 7730 l3 -271 253 0 c138 1 257 1 262 1 7 0 9 91 8 268 l-3 267
-263 3 -262 2 2 -270z"/>
<path d="M1757 7993 c-10 -9 -9 -531 1 -535 4 -2 127 -2 275 0 l267 3 0 269 0
270 -268 0 c-148 0 -272 -3 -275 -7z"/>
<path d="M2887 7993 c-4 -3 -7 -125 -7 -270 l0 -263 260 -1 c143 -1 266 -2
273 -3 9 -1 12 59 12 269 l0 270 -266 3 c-146 1 -268 -1 -272 -5z"/>
<path d="M3996 7984 c-9 -23 -7 -524 2 -524 174 -3 546 0 550 4 7 8 5 513 -3
526 -4 6 -105 10 -275 10 -235 0 -269 -2 -274 -16z"/>
<path d="M6787 7993 c-4 -3 -7 -124 -7 -269 0 -201 3 -263 13 -265 6 -2 130
-3 275 -1 l262 3 -2 267 -3 267 -266 3 c-146 1 -268 -1 -272 -5z"/>
<path d="M7359 7745 c-1 -140 -2 -261 -3 -267 -1 -10 60 -13 274 -13 l275 0 3
245 c1 135 0 255 -3 268 l-5 22 -270 0 -270 0 -1 -255z"/>
<path d="M8474 7987 c-2 -7 -3 -129 -2 -271 l3 -258 264 1 c145 1 268 4 273 7
9 6 11 494 2 518 -5 13 -41 15 -270 15 -201 0 -266 -3 -270 -12z"/>
<path d="M9047 7994 c-4 -4 -7 -126 -7 -271 l0 -263 260 0 260 0 -2 268 -3
267 -251 3 c-138 1 -253 -1 -257 -4z"/>
<path d="M5644 7975 c-5 -11 -9 -123 -9 -250 0 -126 4 -239 9 -250 8 -19 9
-18 22 10 10 22 13 87 13 240 0 153 -3 218 -13 240 -13 28 -14 29 -22 10z"/>
<path d="M1243 7463 c-40 -5 -43 -20 -7 -33 40 -16 444 -12 473 4 19 10 21 15
10 22 -14 9 -418 15 -476 7z"/>
<path d="M3490 7463 c-43 -8 -44 -21 -4 -33 54 -16 458 -10 475 7 7 7 9 16 5
20 -8 9 -436 14 -476 6z"/>
<path d="M7970 7464 c-51 -10 -56 -16 -25 -30 22 -9 87 -13 236 -14 208 0 283
10 259 34 -11 11 -416 19 -470 10z"/>
<path d="M5127 7443 c-4 -3 -7 -127 -7 -274 0 -205 3 -268 13 -270 6 -2 123
-3 259 -1 l247 3 3 265 c2 145 2 269 0 274 -4 11 -504 14 -515 3z"/>
<path d="M658 7421 c-2 -8 -2 -129 0 -270 l3 -256 262 2 262 1 0 267 0 268
-262 1 c-219 1 -263 -1 -265 -13z"/>
<path d="M1754 7431 c-7 -8 -4 -530 4 -533 4 -2 127 -2 275 0 l267 3 -2 265
-3 265 -268 2 c-148 1 -271 0 -273 -2z"/>
<path d="M2330 7432 c-6 -2 -10 -100 -10 -268 l0 -264 270 0 270 0 -2 266 -3
266 -257 1 c-142 1 -262 1 -268 -1z"/>
<path d="M2890 7426 c-6 -6 -10 -118 -10 -268 l0 -258 250 -2 c138 -1 260 -2
273 -2 l22 -1 0 269 0 269 -263 1 c-154 1 -267 -3 -272 -8z"/>
<path d="M3995 7422 c-10 -27 -5 -511 5 -517 13 -8 539 -9 547 -2 4 4 7 452 3
522 0 6 -99 10 -275 10 -220 0 -276 -3 -280 -13z"/>
<path d="M6784 7431 c-2 -2 -4 -122 -4 -267 0 -201 3 -263 13 -265 6 -2 130
-3 275 -1 l262 3 0 259 c0 155 -4 261 -10 265 -10 6 -529 12 -536 6z"/>
<path d="M7364 7431 c-2 -2 -4 -123 -4 -267 l0 -263 263 -3 c144 -2 268 1 275
6 10 7 12 65 12 251 -1 134 -4 251 -6 261 -5 18 -20 19 -270 19 -146 0 -267
-2 -270 -4z"/>
<path d="M8474 7431 c-7 -8 -4 -530 4 -533 4 -2 127 -2 275 0 l267 3 0 260 c0
199 -3 261 -12 264 -16 6 -528 11 -534 6z"/>
<path d="M9044 7431 c-2 -2 -4 -123 -4 -267 l0 -263 248 -3 c136 -2 253 -1
260 1 10 2 12 61 10 269 l-3 265 -253 1 c-140 1 -256 -1 -258 -3z"/>
<path d="M4836 6900 c-173 -3 -251 -8 -253 -16 -7 -20 44 -25 269 -24 121 1
222 -1 225 -3 2 -3 4 -110 3 -238 0 -128 2 -230 5 -227 7 7 11 506 4 510 -2 2
-116 1 -253 -2z"/>
<path d="M1215 6891 c-14 -24 43 -31 255 -31 212 0 269 7 255 31 -4 5 -109 9
-255 9 -146 0 -251 -4 -255 -9z"/>
<path d="M3467 6893 c-4 -3 -2 -12 4 -20 9 -10 62 -13 244 -13 182 0 235 3
244 13 6 8 8 17 4 20 -3 4 -115 7 -248 7 -133 0 -245 -3 -248 -7z"/>
<path d="M6245 6891 c-14 -24 43 -31 255 -31 212 0 269 7 255 31 -4 5 -109 9
-255 9 -146 0 -251 -4 -255 -9z"/>
<path d="M7937 6893 c-4 -3 -2 -12 4 -20 9 -10 61 -13 239 -13 126 0 235 3
244 6 9 3 16 12 16 20 0 12 -43 14 -248 14 -137 0 -252 -3 -255 -7z"/>
<path d="M660 6860 c-1 -31 1 -537 3 -808 l2 -284 250 1 c137 1 253 5 258 10
4 4 6 124 5 266 l-3 259 -242 0 c-226 1 -268 5 -249 24 4 4 118 7 252 7 237 0
245 1 250 20 2 11 3 132 2 268 l-3 249 -262 1 c-228 2 -263 0 -263 -13z"/>
<path d="M1754 6865 c-3 -6 -3 -127 -2 -269 l3 -259 270 1 270 0 3 261 c2 204
0 262 -10 266 -29 10 -531 10 -534 0z"/>
<path d="M3135 6870 l-250 -5 -3 -262 c-1 -145 1 -263 5 -263 5 -1 127 -1 273
-2 l265 -1 0 269 c0 262 -1 269 -20 269 -11 1 -132 -2 -270 -5z"/>
<path d="M3999 6866 c-11 -12 -11 -482 0 -510 7 -18 22 -19 274 -19 147 0 270
2 272 5 7 7 9 517 2 524 -10 10 -537 10 -548 0z"/>
<path d="M5133 6869 c-10 -10 -13 -78 -13 -271 0 -199 3 -258 13 -259 6 0 122
-1 257 -1 l245 0 3 266 2 266 -227 0 c-126 0 -237 3 -248 6 -11 3 -26 -1 -32
-7z"/>
<path d="M5925 6873 c-132 -2 -243 -7 -248 -12 -9 -9 -12 -509 -4 -517 3 -3
123 -6 268 -6 l264 -2 5 255 c3 140 2 262 -3 272 -4 9 -15 16 -25 15 -9 -2
-125 -4 -257 -5z"/>
<path d="M6790 6872 c-15 -5 -13 -519 1 -528 7 -4 129 -7 273 -7 l261 1 3 261
c2 204 0 262 -10 266 -15 5 -514 12 -528 7z"/>
<path d="M7610 6873 c-134 -2 -247 -7 -250 -12 -3 -5 -3 -125 0 -266 l5 -257
264 0 c251 -1 265 0 272 18 12 30 11 482 -1 505 -6 10 -18 18 -28 17 -9 -2
-127 -4 -262 -5z"/>
<path d="M8474 6865 c-3 -6 -3 -127 -2 -269 l3 -259 265 1 c146 1 268 1 273 2
4 0 7 117 7 260 0 200 -3 262 -12 265 -29 10 -531 10 -534 0z"/>
<path d="M9277 6873 l-237 -3 2 -266 3 -266 255 -1 255 0 3 263 c2 266 0 285
-33 278 -5 -2 -117 -4 -248 -5z"/>
<path d="M2325 6857 c-3 -7 -4 -126 -3 -266 l3 -254 265 1 265 0 3 266 2 266
-265 0 c-205 0 -267 -3 -270 -13z"/>
<path d="M1205 6308 c-3 -8 -4 -130 -3 -273 l3 -260 265 0 265 0 0 270 0 270
-263 3 c-206 2 -264 0 -267 -10z"/>
<path d="M3451 6306 c-8 -9 -11 -88 -9 -272 l3 -259 265 0 265 0 0 270 0 270
-256 3 c-209 2 -258 0 -268 -12z"/>
<path d="M4574 6308 c-5 -7 -7 -130 -4 -273 l5 -260 252 -3 252 -2 3 262 c2
145 1 269 -1 276 -2 9 -61 12 -251 12 -187 0 -250 -3 -256 -12z"/>
<path d="M6234 6308 c-5 -7 -7 -130 -4 -273 l5 -260 264 0 263 0 0 260 c0 143
-1 266 -1 273 -1 9 -60 12 -260 12 -195 0 -261 -3 -267 -12z"/>
<path d="M7927 6313 c-4 -3 -7 -127 -7 -275 l0 -268 259 0 c206 0 261 3 270
14 15 18 15 505 -1 523 -8 10 -69 13 -263 13 -138 0 -255 -3 -258 -7z"/>
<path d="M1762 6040 l3 -265 265 0 265 0 0 264 0 264 -268 1 -267 1 2 -265z"/>
<path d="M2324 6295 c-3 -6 -3 -125 -2 -265 l3 -255 265 0 265 0 0 264 0 264
-264 1 c-170 1 -265 -3 -267 -9z"/>
<path d="M2884 6295 c-3 -6 -3 -125 -2 -265 l3 -255 265 0 265 0 3 265 2 265
-266 0 c-172 0 -268 -4 -270 -10z"/>
<path d="M4013 6303 c-11 -4 -6 -514 5 -525 4 -4 123 -7 263 -6 l254 3 5 258
c3 143 3 262 0 265 -5 6 -510 10 -527 5z"/>
<path d="M5134 6301 c-9 -9 -4 -517 5 -527 6 -5 110 -8 256 -6 l245 3 -2 266
-3 267 -248 0 c-137 1 -251 -1 -253 -3z"/>
<path d="M5673 6297 c-3 -5 -4 -121 -3 -260 1 -184 4 -253 13 -259 7 -4 125
-8 264 -8 l252 0 3 258 c2 141 2 262 0 267 -3 12 -521 14 -529 2z"/>
<path d="M6797 6303 c-2 -1 1 -509 2 -526 1 -4 119 -6 264 -5 l262 3 0 264 0
265 -263 0 c-145 1 -264 0 -265 -1z"/>
<path d="M7357 6298 c-1 -5 -1 -125 1 -268 l3 -260 260 0 c198 0 261 3 264 13
7 17 11 517 5 518 -32 5 -531 2 -533 -3z"/>
<path d="M8480 6038 l0 -268 259 0 c207 0 261 3 270 14 8 9 11 88 9 267 l-3
253 -267 1 -268 0 0 -267z"/>
<path d="M9044 6301 c-2 -2 -4 -123 -4 -267 l0 -263 248 -3 c136 -2 253 -1
260 1 10 2 12 61 10 269 l-3 266 -253 1 c-140 0 -256 -2 -258 -4z"/>
<path d="M658 5516 c-1 -130 -2 -246 -2 -258 l-1 -23 260 0 260 0 3 253 2 252
-229 0 c-125 0 -243 3 -260 6 l-31 7 -2 -237z"/>
<path d="M2018 5742 l-258 -2 0 -255 0 -255 270 0 270 0 0 254 c0 195 -3 255
-12 257 -7 2 -129 3 -270 1z"/>
<path d="M2578 5742 l-258 -2 0 -255 0 -255 270 0 270 0 0 254 c0 195 -3 255
-12 257 -7 2 -129 3 -270 1z"/>
<path d="M3137 5742 l-257 -2 2 -253 3 -252 268 -3 267 -2 0 254 c0 194 -3
255 -12 257 -7 2 -129 3 -271 1z"/>
<path d="M3457 5742 c-16 -3 -17 -26 -17 -252 1 -213 3 -249 16 -254 9 -3 130
-6 270 -6 l254 0 -2 256 -3 255 -251 2 c-137 1 -258 1 -267 -1z"/>
<path d="M4019 5739 c-6 -3 -11 -109 -12 -252 -2 -198 1 -248 11 -252 8 -3
128 -5 267 -5 194 0 254 3 256 13 2 6 2 121 -1 255 l-5 243 -253 2 c-140 1
-258 -1 -263 -4z"/>
<path d="M4579 5740 c-9 -6 -14 -484 -4 -500 7 -12 502 -14 507 -2 2 4 1 119
-2 255 l-5 249 -243 1 c-134 1 -248 0 -253 -3z"/>
<path d="M5134 5739 c-2 -5 -6 -420 -4 -496 0 -10 58 -13 255 -13 l255 0 -2
255 -3 256 -248 2 c-137 1 -251 -1 -253 -4z"/>
<path d="M5678 5739 c-5 -3 -10 -107 -11 -253 -2 -239 -1 -247 18 -252 11 -2
132 -3 268 -2 l249 3 -1 249 c0 137 -3 251 -5 253 -6 7 -507 9 -518 2z"/>
<path d="M6240 5740 c-5 -3 -10 -117 -12 -253 -3 -241 -2 -248 17 -253 11 -2
132 -3 269 -2 l249 3 0 248 c-1 137 -3 251 -6 253 -7 7 -507 10 -517 4z"/>
<path d="M6802 5742 c-4 -1 -7 -116 -7 -255 l1 -252 259 -3 c142 -1 263 2 268
7 7 7 11 490 3 498 -4 4 -513 9 -524 5z"/>
<path d="M7364 5738 c-2 -3 -5 -118 -5 -255 l-2 -248 249 -3 c137 -1 258 0
269 2 19 5 20 12 18 252 -1 136 -4 248 -6 251 -7 6 -519 8 -523 1z"/>
<path d="M7924 5741 c-2 -2 -4 -118 -4 -258 l0 -253 268 2 267 3 3 253 c2 198
0 252 -10 252 -7 0 -127 1 -266 3 -140 1 -256 0 -258 -2z"/>
<path d="M8487 5744 c-4 -4 -7 -121 -7 -261 l0 -253 268 2 267 3 3 253 2 252
-249 0 c-137 0 -256 2 -263 5 -8 3 -17 2 -21 -1z"/>
<path d="M9044 5735 c-3 -6 -3 -121 -2 -255 l3 -245 255 0 255 0 0 254 0 253
-254 2 c-164 1 -255 -3 -257 -9z"/>
<path d="M1200 5485 l0 -255 270 0 270 0 0 255 0 255 -270 0 -270 0 0 -255z"/>
<path d="M1250 5190 c0 -7 80 -10 241 -10 l241 1 1 -250 2 -251 -251 0 c-230
0 -252 -1 -267 -18 -10 -10 -17 -20 -17 -23 0 -2 119 -2 265 1 236 4 266 7
282 23 16 16 18 41 18 267 0 207 2 250 14 252 8 2 127 2 265 0 l251 -3 0 -243
c0 -229 4 -271 23 -252 4 4 8 122 9 261 l1 254 -539 0 c-367 1 -539 -2 -539
-9z"/>
<path d="M2340 5190 c0 -7 88 -10 256 -10 l256 1 1 -245 c1 -134 5 -248 10
-252 18 -19 22 24 22 252 l0 244 243 0 c152 0 242 4 242 10 0 6 -184 10 -515
10 -343 0 -515 -4 -515 -10z"/>
<path d="M5170 5190 c0 -6 76 -10 209 -10 129 0 212 4 216 10 4 7 -68 10 -209
10 -137 0 -216 -4 -216 -10z"/>
<path d="M6280 5190 c0 -6 78 -10 214 -10 133 0 217 4 221 10 4 7 -70 10 -214
10 -141 0 -221 -4 -221 -10z"/>
<path d="M8530 5190 c0 -6 76 -10 209 -10 129 0 212 4 216 10 4 7 -68 10 -209
10 -137 0 -216 -4 -216 -10z"/>
<path d="M658 5175 c-2 -5 -1 -125 2 -265 3 -140 3 -374 0 -518 -3 -145 -2
-268 1 -273 3 -6 117 -10 265 -10 l259 -1 3 261 c1 156 -2 269 -7 280 -7 12
-7 21 0 28 6 6 8 106 7 257 l-3 248 -262 2 c-168 0 -264 -3 -265 -9z m467
-503 c71 -13 20 -25 -130 -30 -78 -2 -181 -1 -228 3 -86 7 -113 20 -59 28 47
7 375 6 417 -1z"/>
<path d="M3440 5182 c-12 -4 -14 -491 -2 -510 7 -9 68 -12 273 -10 l264 3 0
258 0 258 -263 2 c-144 1 -267 1 -272 -1z"/>
<path d="M4012 5180 c-10 -7 -9 -500 1 -501 4 0 123 -1 265 -1 l257 -1 5 244
c3 134 2 248 -1 252 -7 9 -516 15 -527 7z"/>
<path d="M4576 5175 c-8 -7 -9 -83 -6 -254 l5 -243 255 -1 255 0 0 253 0 253
-249 1 c-154 1 -253 -3 -260 -9z"/>
<path d="M5659 5174 c-5 -7 -8 -115 -7 -255 l3 -243 273 1 c150 0 275 3 277 5
7 7 10 487 3 494 -12 12 -539 10 -549 -2z"/>
<path d="M6790 5182 c-15 -5 -13 -487 2 -512 16 -25 3 -38 -22 -22 -23 14
-506 17 -528 4 -9 -7 -12 -68 -10 -273 l3 -264 259 -5 c165 -3 264 -1 272 5
11 8 14 65 16 260 3 232 4 250 21 247 11 -2 17 4 17 18 0 20 5 20 249 20 145
0 252 4 256 9 6 11 9 501 2 507 -5 5 -523 10 -537 6z"/>
<path d="M7363 5177 c-2 -4 -4 -119 -4 -255 l0 -247 248 -3 c136 -1 257 0 268
2 19 5 20 13 20 256 0 160 -4 250 -10 250 -226 5 -518 3 -522 -3z"/>
<path d="M7924 5175 c-3 -6 -3 -123 -2 -260 l3 -250 248 -3 c239 -2 247 -3
247 -22 0 -13 7 -20 20 -20 24 0 22 -22 24 304 l1 259 -269 1 c-174 1 -270 -3
-272 -9z"/>
<path d="M9034 5175 c-3 -6 -3 -120 -2 -254 l3 -244 260 0 260 0 0 253 0 252
-259 2 c-168 0 -260 -3 -262 -9z"/>
<path d="M5124 4935 c0 -104 2 -146 3 -92 2 54 2 139 0 190 -1 51 -3 7 -3 -98z"/>
<path d="M5120 4660 c0 -20 4 -20 253 -18 216 3 252 5 252 18 0 13 -36 15
-252 18 -249 2 -253 2 -253 -18z"/>
<path d="M1755 4661 c-10 -10 -5 -546 5 -553 3 -2 124 -1 270 2 l265 5 3 273
2 272 -254 0 c-140 0 -260 2 -268 5 -7 3 -18 1 -23 -4z"/>
<path d="M2322 4388 l3 -273 268 -3 267 -2 0 275 0 275 -270 0 -270 0 2 -272z"/>
<path d="M2887 4653 c-10 -9 -9 -531 1 -537 4 -2 127 -6 272 -7 l265 -2 3 254
c1 140 0 264 -3 277 l-5 22 -264 0 c-144 0 -266 -3 -269 -7z"/>
<path d="M5010 4648 c-30 -5 -140 -7 -245 -6 l-190 3 0 -265 0 -265 250 -5
c161 -3 253 -1 257 5 4 6 8 125 8 266 0 194 -3 259 -12 266 -8 5 -35 6 -68 1z"/>
<path d="M8476 4644 c-11 -29 -7 -522 5 -529 15 -10 512 -6 522 4 5 5 10 125
10 266 2 232 0 258 -15 266 -9 5 -129 9 -266 9 -219 0 -251 -2 -256 -16z"/>
<path d="M4002 4635 c-4 -5 -8 -123 -10 -261 -3 -198 0 -252 10 -260 7 -5 126
-8 276 -6 l262 3 0 264 c0 146 -3 265 -7 266 -72 6 -527 2 -531 -6z"/>
<path d="M5659 4628 c-15 -27 -11 -504 4 -514 6 -5 130 -8 274 -6 l262 3 3
257 c2 141 2 262 0 267 -1 6 -99 10 -268 10 -239 0 -267 -2 -275 -17z"/>
<path d="M9040 4378 l0 -267 248 -3 c136 -2 253 1 260 6 9 7 12 68 10 269 l-3
261 -258 0 -257 1 0 -267z"/>
<path d="M7350 4621 c-15 -29 -14 -493 2 -509 9 -9 85 -12 279 -12 l267 0 6
23 c3 12 6 126 6 254 0 197 -2 234 -16 247 -13 14 -52 16 -274 16 -246 0 -260
-1 -270 -19z"/>
<path d="M5120 4395 c0 -98 2 -176 5 -173 8 7 8 338 1 345 -3 4 -6 -74 -6
-172z"/>
<path d="M1221 4107 c-6 -8 -8 -17 -4 -20 10 -11 501 -8 508 2 14 24 -43 31
-263 31 -180 0 -232 -3 -241 -13z"/>
<path d="M3471 4111 c-7 -5 -10 -14 -7 -20 5 -8 83 -11 251 -11 168 0 246 3
251 11 14 24 -29 29 -251 29 -126 0 -236 -4 -244 -9z"/>
<path d="M5126 4113 c-3 -4 -6 -12 -6 -20 0 -10 48 -13 249 -13 244 0 289 6
250 31 -15 10 -483 11 -493 2z"/>
<path d="M6810 4091 c-13 -8 -15 -48 -14 -270 0 -144 3 -263 6 -266 2 -3 124
-6 269 -6 l264 -1 3 268 c2 207 -1 269 -10 276 -18 11 -499 10 -518 -1z"/>
<path d="M7922 4088 c-9 -9 -12 -78 -12 -274 0 -145 3 -264 8 -266 4 -2 126
-1 271 2 l264 5 0 258 c-1 182 -4 262 -12 270 -18 18 -502 22 -519 5z"/>
<path d="M658 3829 c-2 -141 -2 -262 0 -270 2 -12 46 -14 265 -13 l262 2 0
267 0 267 -262 2 -262 1 -3 -256z"/>
<path d="M1755 4079 c-3 -8 -4 -133 -3 -279 l3 -264 270 1 270 0 3 272 2 271
-232 0 c-128 0 -250 3 -270 6 -27 5 -39 3 -43 -7z"/>
<path d="M2577 4082 l-257 -2 2 -272 3 -272 265 1 265 0 3 270 c2 212 0 272
-10 274 -7 2 -129 3 -271 1z"/>
<path d="M3128 4083 l-248 -3 0 -270 c0 -149 3 -270 8 -271 4 0 123 -1 265 -2
181 -1 261 1 268 9 5 7 8 123 7 275 l-3 264 -25 0 c-14 1 -136 -1 -272 -2z"/>
<path d="M3998 4084 c-10 -9 -9 -480 1 -513 l6 -23 265 1 265 0 3 266 2 265
-232 0 c-128 0 -249 3 -268 6 -19 3 -38 2 -42 -2z"/>
<path d="M4580 4082 c-13 -5 -14 -518 -1 -526 5 -3 120 -7 255 -8 240 -3 247
-2 252 17 2 11 3 132 2 269 l-3 249 -247 1 c-136 0 -252 0 -258 -2z"/>
<path d="M5655 4072 c-7 -18 -7 -496 0 -514 4 -10 57 -13 273 -11 l267 3 0
265 0 265 -267 3 c-216 2 -269 -1 -273 -11z"/>
<path d="M6483 4083 l-253 -3 0 -260 c0 -155 4 -261 10 -265 11 -7 510 -8 517
-1 3 3 6 122 7 265 1 209 -2 262 -12 266 -8 3 -14 4 -15 3 -1 -2 -116 -4 -254
-5z"/>
<path d="M8485 4078 c-3 -7 -4 -129 -3 -271 l3 -258 258 0 c142 0 262 3 268 6
5 4 9 115 9 266 l0 259 -242 0 c-134 0 -253 3 -265 6 -15 4 -25 1 -28 -8z"/>
<path d="M9044 4081 c-2 -2 -4 -123 -4 -267 l0 -263 253 -3 c138 -2 255 -2
260 0 4 2 7 122 7 268 0 204 -3 264 -12 264 -95 4 -501 4 -504 1z"/>
<path d="M5122 3805 l2 -210 6 200 c3 110 2 204 -2 210 -5 5 -7 -85 -6 -200z"/>
<path d="M1233 3550 c-73 -30 26 -43 295 -39 l203 4 2 -260 2 -260 -235 0
c-227 0 -290 -5 -290 -24 0 -16 122 -23 324 -20 171 4 197 6 213 22 16 16 18
42 18 281 0 246 -1 264 -19 282 -18 18 -37 19 -255 21 -130 1 -246 -2 -258 -7z"/>
<path d="M5123 3540 c1 -16 13 -20 84 -25 99 -9 409 -2 419 8 4 4 2 13 -5 20
-9 9 -78 12 -256 14 -231 1 -244 1 -242 -17z"/>
<path d="M7381 3546 c-41 -23 -7 -30 170 -34 175 -5 339 4 339 18 0 22 -76 30
-274 30 -156 -1 -217 -4 -235 -14z"/>
<path d="M664 3521 c-2 -2 -4 -125 -4 -272 l0 -269 263 3 262 2 0 268 0 269
-258 1 c-142 1 -261 0 -263 -2z"/>
<path d="M3437 3523 c-4 -3 -7 -119 -7 -258 0 -187 3 -256 13 -268 11 -16 35
-18 272 -15 l260 3 3 273 2 272 -268 0 c-148 0 -272 -3 -275 -7z"/>
<path d="M4817 3522 l-247 -2 2 -268 3 -267 255 0 255 0 0 269 c0 172 -4 270
-10 270 -5 1 -121 0 -258 -2z"/>
<path d="M7051 3520 l-255 -5 1 -256 c0 -141 3 -261 7 -267 4 -8 89 -11 271
-12 l265 0 0 269 c0 236 -2 270 -16 275 -9 3 -16 5 -17 4 -1 -1 -116 -5 -256
-8z"/>
<path d="M2304 3505 c-5 -11 -9 -132 -9 -268 0 -207 2 -249 15 -257 8 -5 11
-12 7 -17 -5 -4 -11 -3 -15 2 -9 13 -533 13 -547 1 -6 -5 -8 -103 -5 -275 l5
-266 273 -3 c149 -1 273 -1 274 0 1 2 5 122 8 268 l5 265 211 -3 c212 -4 348
4 339 18 -3 5 1 10 7 12 10 4 13 64 13 260 0 141 -3 260 -7 264 -19 19 -23
-24 -23 -259 l0 -252 -265 0 -265 0 3 225 c3 224 -6 327 -24 285z"/>
<path d="M4010 3515 c-5 -46 0 -517 5 -524 4 -7 95 -10 263 -8 l257 2 3 268 2
267 -265 0 c-146 0 -265 -2 -265 -5z"/>
<path d="M5650 3263 c0 -142 4 -264 8 -270 6 -10 70 -12 273 -10 l264 2 3 268
2 267 -275 0 -275 0 0 -257z"/>
<path d="M6232 3253 l3 -268 263 -2 c164 -2 262 1 263 7 0 6 0 126 1 268 l0
257 -266 3 -266 2 2 -267z"/>
<path d="M7912 3253 l3 -267 254 -1 c155 0 259 4 267 10 20 15 21 504 2 516
-7 5 -129 9 -271 9 l-257 0 2 -267z"/>
<path d="M8480 3251 l0 -269 259 -1 c205 0 261 2 270 13 8 9 11 91 9 267 l-3
254 -267 3 -268 2 0 -269z"/>
<path d="M9042 3253 l3 -268 255 0 255 0 3 268 2 267 -260 0 -260 0 2 -267z"/>
<path d="M5120 3255 c0 -109 3 -196 6 -193 7 7 7 379 -1 386 -3 3 -5 -84 -5
-193z"/>
<path d="M5120 2974 c0 -21 2 -21 249 -20 169 1 254 5 261 12 24 24 -71 34
-292 31 -215 -2 -218 -2 -218 -23z"/>
<path d="M7395 2986 c-35 -12 -38 -14 -20 -22 25 -11 473 -12 500 -1 l20 8
-20 12 c-31 18 -429 20 -480 3z"/>
<path d="M2875 2962 c-7 -19 -6 -517 1 -536 5 -14 38 -16 259 -16 139 0 260 3
269 6 14 5 16 39 16 275 0 207 -3 271 -12 274 -7 3 -129 6 -270 7 -207 2 -259
0 -263 -10z"/>
<path d="M664 2961 c-2 -2 -4 -125 -4 -273 l0 -268 263 2 262 3 3 268 c1 147
-1 267 -5 267 -139 3 -516 4 -519 1z"/>
<path d="M7056 2960 l-259 -5 -1 -267 c-1 -214 2 -269 12 -273 19 -7 497 -6
516 1 14 5 16 39 16 274 0 206 -3 269 -12 271 -7 2 -130 2 -272 -1z"/>
<path d="M3442 2693 l3 -268 265 0 265 0 3 268 2 267 -270 0 -270 0 2 -267z"/>
<path d="M4009 2953 c-3 -51 2 -516 6 -523 4 -6 112 -10 266 -10 l259 0 0 270
0 270 -265 0 c-146 0 -265 -3 -266 -7z"/>
<path d="M4572 2693 l3 -268 255 0 255 0 3 268 2 267 -260 0 -260 0 2 -267z"/>
<path d="M5657 2953 c-9 -8 -9 -496 -1 -517 5 -14 39 -16 275 -16 l269 0 0
270 0 270 -268 0 c-148 0 -272 -3 -275 -7z"/>
<path d="M6232 2693 l3 -268 264 0 264 0 -1 265 0 265 -266 3 -266 2 2 -267z"/>
<path d="M7910 2691 c0 -236 2 -270 16 -275 9 -3 123 -6 254 -6 204 0 241 2
254 16 14 13 16 51 16 259 0 134 -3 250 -6 259 -5 14 -39 16 -270 16 l-264 0
0 -269z"/>
<path d="M8480 2690 l0 -270 258 0 c141 0 263 4 270 8 9 7 12 67 10 268 l-3
259 -267 3 -268 2 0 -270z"/>
<path d="M9042 2693 l3 -268 255 0 255 0 3 268 2 267 -260 0 -260 0 2 -267z"/>
<path d="M5120 2695 c0 -109 2 -196 5 -194 6 7 8 380 1 387 -3 3 -6 -84 -6
-193z"/>
<path d="M1228 2423 c-28 -7 -21 -20 13 -27 43 -8 438 -6 469 3 l25 7 -22 12
c-21 12 -444 16 -485 5z"/>
<path d="M5120 2415 c0 -9 21 -16 63 -20 86 -9 429 -2 447 9 29 19 -46 26
-277 25 -186 -1 -233 -4 -233 -14z"/>
<path d="M913 2402 l-253 -2 0 -270 0 -270 263 2 262 3 3 266 c2 209 0 268
-10 270 -7 2 -127 3 -265 1z"/>
<path d="M1757 2404 c-4 -4 -7 -128 -7 -276 l0 -268 275 0 275 0 0 270 0 270
-254 0 c-140 0 -261 2 -268 5 -8 3 -17 2 -21 -1z"/>
<path d="M2327 2403 c-4 -3 -7 -127 -7 -275 l0 -268 273 2 272 3 0 270 0 270
-266 3 c-146 1 -268 -1 -272 -5z"/>
<path d="M7355 2397 c-3 -7 -4 -129 -3 -272 l3 -260 275 0 275 0 0 270 0 270
-273 3 c-214 2 -274 0 -277 -11z"/>
<path d="M3436 2384 c-3 -9 -6 -130 -6 -270 l0 -254 23 -5 c12 -3 135 -4 272
-3 l250 3 3 273 2 272 -269 0 c-236 0 -270 -2 -275 -16z"/>
<path d="M4010 2398 c-1 -2 -1 -122 -2 -268 l0 -265 266 -3 266 -2 0 270 0
270 -265 0 c-146 0 -265 -1 -265 -2z"/>
<path d="M4572 2133 l3 -268 258 -3 257 -2 0 270 0 270 -260 0 -260 0 2 -267z"/>
<path d="M5655 2387 c-3 -7 -4 -127 -3 -267 l3 -255 275 0 c214 0 275 3 274
13 -1 6 -2 127 -2 267 l-2 255 -270 0 c-209 0 -272 -3 -275 -13z"/>
<path d="M6228 2138 c-2 -145 1 -269 6 -275 6 -10 71 -13 265 -13 141 0 262 4
269 8 9 7 12 68 10 273 l-3 264 -272 3 -272 2 -3 -262z"/>
<path d="M8472 2128 l3 -273 270 0 270 0 3 273 2 272 -275 0 -275 0 2 -272z"/>
<path d="M9040 2130 l0 -270 260 0 260 0 0 270 0 270 -260 0 -260 0 0 -270z"/>
<path d="M5120 2121 c1 -117 3 -211 6 -209 7 8 7 408 0 415 -4 4 -6 -89 -6
-206z"/>
<path d="M1238 1863 c-41 -6 -34 -21 15 -28 56 -9 463 -2 473 8 4 4 4 10 0 15
-8 8 -442 12 -488 5z"/>
<path d="M5120 1849 c0 -16 18 -17 249 -16 170 1 254 6 261 13 20 20 -50 25
-286 23 -206 -2 -224 -4 -224 -20z"/>
<path d="M913 1842 l-253 -2 0 -270 0 -270 259 0 c227 0 260 2 265 16 3 9 6
130 6 269 0 194 -3 254 -12 256 -7 2 -127 3 -265 1z"/>
<path d="M1755 1838 c-3 -7 -4 -130 -3 -273 l3 -260 273 -3 272 -2 0 270 0
270 -254 0 c-140 0 -261 3 -270 6 -9 3 -18 0 -21 -8z"/>
<path d="M2892 1842 c-9 -7 -12 -68 -10 -273 l3 -264 270 0 270 0 0 270 0 270
-260 2 c-143 2 -266 -1 -273 -5z"/>
<path d="M6797 1843 c-9 -8 -9 -506 -1 -527 5 -14 39 -16 275 -16 l268 0 3
266 c2 158 -1 269 -6 275 -11 10 -529 13 -539 2z"/>
<path d="M7927 1843 c-4 -3 -7 -127 -7 -275 l0 -268 269 0 269 0 6 31 c12 61
7 494 -6 507 -13 13 -519 18 -531 5z"/>
<path d="M2320 1570 l0 -270 270 0 270 0 0 270 0 270 -270 0 -270 0 0 -270z"/>
<path d="M3996 1809 c-8 -41 -8 -422 0 -472 l7 -37 266 2 266 3 3 268 2 267
-269 0 -268 0 -7 -31z"/>
<path d="M4577 1834 c-4 -4 -7 -126 -7 -271 l0 -263 258 2 257 3 0 265 0 265
-251 3 c-138 1 -253 -1 -257 -4z"/>
<path d="M5657 1833 c-9 -8 -7 -471 2 -503 l7 -25 269 0 270 0 3 268 2 267
-273 0 c-151 0 -277 -3 -280 -7z"/>
<path d="M7360 1570 l0 -270 259 0 c143 0 262 4 265 8 3 5 6 125 7 268 l2 259
-267 3 -266 2 0 -270z"/>
<path d="M9035 1827 c-3 -7 -4 -127 -3 -267 l3 -255 250 -3 c226 -2 251 -1
263 15 9 12 12 83 12 270 l0 253 -260 0 c-201 0 -262 -3 -265 -13z"/>
<path d="M5120 1592 c0 -100 3 -182 8 -182 8 0 7 348 -2 357 -3 4 -6 -75 -6
-175z"/>
<path d="M8987 1324 c-13 -13 -7 -24 14 -24 11 0 19 5 17 12 -5 14 -22 21 -31
12z"/>
<path d="M6240 1310 c0 -5 5 -10 10 -10 6 0 10 5 10 10 0 6 -4 10 -10 10 -5 0
-10 -4 -10 -10z"/>
<path d="M1207 1283 c-4 -3 -7 -123 -7 -265 l0 -258 270 0 270 0 -2 263 -3
262 -261 3 c-143 1 -263 -1 -267 -5z"/>
<path d="M3453 1283 c-10 -3 -13 -66 -13 -264 l0 -259 270 0 270 0 -2 263 -3
262 -255 2 c-140 1 -261 -1 -267 -4z"/>
<path d="M5135 1280 c-10 -16 -6 -513 4 -520 5 -3 120 -4 255 -2 l246 3 -2
262 -3 262 -247 3 c-161 1 -249 -1 -253 -8z"/>
<path d="M6235 1280 c-3 -5 -6 -124 -6 -262 l0 -253 268 -3 268 -2 -1 262 -1
263 -261 3 c-167 1 -263 -1 -267 -8z"/>
<path d="M8487 1283 c-4 -3 -7 -123 -7 -265 l0 -258 270 0 270 0 0 259 c0 227
-2 260 -16 265 -21 8 -509 8 -517 -1z"/>
<path d="M658 1028 c-2 -139 -1 -259 1 -266 2 -8 12 -11 25 -8 11 3 128 6 259
6 l237 0 0 260 0 260 -259 0 -260 0 -3 -252z"/>
<path d="M1760 1020 l0 -260 270 0 270 0 0 260 0 260 -270 0 -270 0 0 -260z"/>
<path d="M2320 1020 l0 -260 270 0 270 0 0 260 0 260 -270 0 -270 0 0 -260z"/>
<path d="M2887 1273 c-4 -3 -7 -120 -7 -260 l0 -253 270 0 270 0 0 260 0 260
-263 0 c-145 0 -267 -3 -270 -7z"/>
<path d="M4010 1278 c-1 -2 -2 -119 -3 -261 l-2 -257 267 0 c147 0 268 3 270
8 2 4 2 121 0 260 l-3 252 -264 0 c-146 0 -265 -1 -265 -2z"/>
<path d="M4576 1272 c-3 -4 -6 -120 -7 -258 l-2 -249 248 -5 c159 -3 252 -1
259 5 8 7 10 89 8 263 l-3 252 -249 0 c-137 0 -251 -4 -254 -8z"/>
<path d="M5670 1275 c-1 -3 -1 -119 -1 -257 l-1 -253 267 0 267 0 -1 250 c0
138 -1 253 -1 258 0 8 -530 10 -530 2z"/>
<path d="M6795 1020 l0 -260 269 2 269 3 -2 249 c-1 138 -4 254 -7 258 -3 4
-123 8 -267 8 l-262 0 0 -260z"/>
<path d="M7358 1045 c-1 -129 -2 -245 -2 -257 l-1 -23 269 0 269 0 -2 245 c0
135 -1 251 -1 258 0 9 -60 12 -265 12 l-265 0 -2 -235z"/>
<path d="M7920 1020 l0 -260 270 0 270 0 -2 258 -3 257 -267 3 -268 2 0 -260z"/>
<path d="M9040 1020 l0 -259 248 -3 c136 -2 253 -1 260 1 9 2 12 63 12 262 l0
259 -260 0 -260 0 0 -260z"/>
</g>
</svg>
